<?xml version="1.0" encoding="iso-8859-1"?>
<!-- Uploaded to: SVG Repo, www.svgrepo.com, Generator: SVG Repo Mixer Tools -->
<svg version="1.1" id="Layer_1" xmlns="http://www.w3.org/2000/svg" xmlns:xlink="http://www.w3.org/1999/xlink" 
	 viewBox="0 0 512 512" xml:space="preserve">
<g>
	<g>
		<path style="fill:#FF2C47;" d="M71.277,378.916l254.34-254.34l53.288-53.287l-50.165-50.162c-13.93-13.927-36.718-13.927-50.644,0
			L21.113,278.107c-13.928,13.928-13.928,36.716,0,50.644L71.277,378.916z"/>
		<path style="fill:#FF2C47;" d="M378.905,71.291L71.277,378.916L183.24,490.88c13.926,13.927,36.716,13.927,50.642-0.002
			l256.984-256.983c13.928-13.928,13.928-36.714,0-50.645L378.905,71.291L378.905,71.291z M354.275,216.59l45.255-45.254
			l30.17,30.173l-45.255,45.252L354.275,216.59z"/>
	</g>
	
		<rect x="0.022" y="185.563" transform="matrix(-0.7071 0.7071 -0.7071 -0.7071 525.2052 217.5712)" style="fill:#009FD3;" width="435.041" height="63.992"/>
	
		<rect x="359.983" y="187.713" transform="matrix(-0.7071 0.7071 -0.7071 -0.7071 816.9722 79.6895)" style="fill:#FF9600;" width="63.997" height="42.665"/>
</g>
<g>
	<path style="fill:#000003;" d="M498.409,175.707L336.283,13.583c-8.752-8.751-20.423-13.571-32.865-13.571
		c-12.441,0-24.112,4.819-32.864,13.569L13.571,270.565C4.819,279.315,0,290.986,0,303.429c0,12.442,4.819,24.114,13.571,32.864
		l19.992,19.992c0.002,0.001,0.003,0.003,0.005,0.005c0.002,0.002,0.004,0.004,0.006,0.005l134.36,134.359H149.33
		c-5.89,0-10.666,4.776-10.666,10.666c0,5.891,4.776,10.666,10.666,10.666h59.189c0.014,0,0.027,0.001,0.041,0.001
		s0.027-0.001,0.041-0.001l154.053,0.001c5.89,0,10.666-4.776,10.666-10.666c0-5.891-4.776-10.666-10.666-10.666l-113.464-0.001
		L498.41,241.433C516.53,223.313,516.53,193.827,498.409,175.707z M483.325,226.352L226.341,483.335
		c-4.713,4.712-11.013,7.311-17.742,7.321h-0.081c-6.727-0.011-13.025-2.608-17.736-7.321L56.195,348.748L302.989,101.95
		c4.165-4.165,4.165-10.919,0-15.084c-4.166-4.165-10.918-4.165-15.084,0.001L41.11,333.664l-12.456-12.456
		c-4.721-4.72-7.321-11.034-7.321-17.779c0-6.744,2.6-13.059,7.322-17.78L285.637,28.668c4.722-4.721,11.037-7.321,17.781-7.321
		c6.744,0,13.059,2.6,17.781,7.322l57.703,57.702L132.103,333.17c-4.165,4.165-4.165,10.919,0,15.084
		c2.083,2.083,4.813,3.124,7.542,3.124c2.731,0,5.459-1.042,7.542-3.124l246.799-246.799l89.339,89.336
		C493.128,200.595,493.127,216.548,483.325,226.352z"/>
	<path style="fill:#000003;" d="M262.801,308.065c-4.165-4.165-10.917-4.165-15.084-0.001l-83.935,83.933
		c-4.165,4.165-4.165,10.919,0,15.084c2.083,2.083,4.813,3.124,7.542,3.124s5.459-1.042,7.542-3.124l83.934-83.933
		C266.966,318.984,266.966,312.23,262.801,308.065z"/>
	<path style="fill:#000003;" d="M228.375,387.742l-34.425,34.425c-4.165,4.165-4.165,10.919,0,15.085
		c2.083,2.083,4.813,3.124,7.542,3.124c2.731,0,5.459-1.041,7.542-3.124l34.425-34.425c4.165-4.165,4.165-10.919,0-15.084
		C239.294,383.577,232.543,383.577,228.375,387.742z"/>
	<path style="fill:#000003;" d="M260.053,356.067l-4.525,4.525c-4.166,4.165-4.166,10.918-0.001,15.084
		c2.082,2.083,4.813,3.124,7.542,3.124c2.73,0,5.459-1.041,7.541-3.124l4.525-4.525c4.166-4.165,4.166-10.918,0.001-15.084
		C270.974,351.902,264.219,351.9,260.053,356.067z"/>
	<path style="fill:#000003;" d="M407.073,163.794c-2-2-4.713-3.124-7.542-3.124s-5.541,1.124-7.542,3.124l-45.255,45.254
		c-2,2-3.124,4.713-3.124,7.542s1.124,5.542,3.124,7.542l30.17,30.167c2.083,2.083,4.813,3.124,7.542,3.124
		c2.731,0,5.459-1.042,7.542-3.124l45.253-45.252c4.165-4.165,4.165-10.919,0-15.084L407.073,163.794z M384.445,231.674
		L369.36,216.59l30.17-30.17l15.084,15.085L384.445,231.674z"/>
	<path style="fill:#000003;" d="M320.339,80.188c2.729,0,5.461-1.042,7.543-3.126l4.525-4.527c4.164-4.166,4.163-10.92-0.003-15.084
		c-4.165-4.164-10.92-4.163-15.084,0.003l-4.525,4.527c-4.164,4.166-4.163,10.92,0.003,15.084
		C314.881,79.148,317.609,80.188,320.339,80.188z"/>
	<path style="fill:#000003;" d="M107.214,358.059l-4.525,4.525c-4.165,4.165-4.165,10.919,0,15.084
		c2.083,2.083,4.813,3.124,7.542,3.124c2.731,0,5.459-1.041,7.542-3.124l4.525-4.525c4.165-4.165,4.165-10.919,0-15.085
		C118.133,353.893,111.381,353.893,107.214,358.059z"/>
</g>
</svg>